<svg width="369" height="353" viewBox="0 0 369 353" fill="none" xmlns="http://www.w3.org/2000/svg">
<path d="M92.3137 102.752C86.0653 96.5039 86.0653 86.3733 92.3137 80.1249L153.125 19.3137C159.373 13.0653 169.504 13.0653 175.752 19.3137L236.563 80.1249C242.812 86.3733 242.812 96.5039 236.563 102.752L175.752 163.563C169.504 169.812 159.373 169.812 153.125 163.563L92.3137 102.752Z" fill="url(#paint0_linear_4_2)"/>
<path d="M92.3137 286.752C86.0653 280.504 86.0653 270.373 92.3137 264.125L153.125 203.314C159.373 197.065 169.504 197.065 175.752 203.314L236.563 264.125C242.812 270.373 242.812 280.504 236.563 286.752L175.752 347.563C169.504 353.812 159.373 353.812 153.125 347.563L92.3137 286.752Z" fill="url(#paint1_linear_4_2)"/>
<path d="M179.314 194.752C173.065 188.504 173.065 178.373 179.314 172.125L240.125 111.314C246.373 105.065 256.504 105.065 262.752 111.314L323.563 172.125C329.812 178.373 329.812 188.504 323.563 194.752L262.752 255.563C256.504 261.812 246.373 261.812 240.125 255.563L179.314 194.752Z" fill="url(#paint2_linear_4_2)"/>
<path d="M5.3137 194.752C-0.934686 188.504 -0.934687 178.373 5.3137 172.125L66.1249 111.314C72.3733 105.065 82.5039 105.065 88.7523 111.314L149.563 172.125C155.812 178.373 155.812 188.504 149.563 194.752L88.7523 255.563C82.5039 261.812 72.3733 261.812 66.1249 255.563L5.3137 194.752Z" fill="url(#paint3_linear_4_2)"/>
<path fill-rule="evenodd" clip-rule="evenodd" d="M193.6 2.61584C194.233 1.08485 195.988 0.357244 197.519 0.990679C199.764 1.9196 201.865 3.29595 203.683 5.11372L211.722 13.1531C212.893 14.3247 212.893 16.2242 211.722 17.3958C210.55 18.5673 208.651 18.5673 207.479 17.3958L199.44 9.35636C198.19 8.10604 196.754 7.16755 195.225 6.53488C193.694 5.90144 192.966 4.14683 193.6 2.61584ZM186.895 2.61585C187.529 4.14684 186.801 5.90145 185.27 6.53489C183.741 7.16756 182.305 8.10605 181.055 9.35637L173.524 16.8874C172.352 18.059 170.453 18.059 169.281 16.8874C168.11 15.7158 168.11 13.8163 169.281 12.6447L176.812 5.11373C178.63 3.29596 180.731 1.91961 182.976 0.990688C184.507 0.357251 186.262 1.08486 186.895 2.61585ZM158.462 27.7067C159.634 28.8783 159.634 30.7778 158.462 31.9494L143.4 47.0114C142.228 48.183 140.329 48.183 139.157 47.0114C137.986 45.8398 137.986 43.9403 139.157 42.7688L154.219 27.7067C155.391 26.5352 157.29 26.5352 158.462 27.7067ZM223.558 29.2319C224.73 28.0604 226.629 28.0604 227.801 29.2319L243.88 45.3108C245.051 46.4823 245.051 48.3818 243.88 49.5534C242.708 50.725 240.808 50.725 239.637 49.5534L223.558 33.4746C222.387 32.303 222.387 30.4035 223.558 29.2319ZM128.338 57.8308C129.51 59.0023 129.51 60.9018 128.338 62.0734L113.276 77.1354C112.104 78.307 110.205 78.307 109.033 77.1354C107.862 75.9638 107.862 74.0643 109.033 72.8928L124.095 57.8308C125.267 56.6592 127.166 56.6592 128.338 57.8308ZM255.716 61.3896C256.887 60.218 258.787 60.218 259.958 61.3896L276.037 77.4684C277.209 78.64 277.209 80.5395 276.037 81.711C274.866 82.8826 272.966 82.8826 271.795 81.711L255.716 65.6322C254.544 64.4606 254.544 62.5611 255.716 61.3896ZM98.214 87.9548C99.3856 89.1263 99.3856 91.0258 98.214 92.1974L83.152 107.259C81.9805 108.431 80.081 108.431 78.9094 107.259C77.7378 106.088 77.7378 104.188 78.9094 103.017L93.9714 87.9548C95.143 86.7832 97.0425 86.7832 98.214 87.9548ZM287.873 93.5472C289.045 92.3756 290.944 92.3756 292.116 93.5472L308.195 109.626C309.366 110.798 309.366 112.697 308.195 113.869C307.023 115.04 305.124 115.04 303.952 113.869L287.873 97.7899C286.702 96.6183 286.702 94.7188 287.873 93.5472ZM68.09 118.079C69.2616 119.25 69.2616 121.15 68.09 122.321L53.028 137.383C51.8565 138.555 49.957 138.555 48.7854 137.383C47.6138 136.212 47.6138 134.312 48.7854 133.141L63.8474 118.079C65.019 116.907 66.9185 116.907 68.09 118.079ZM320.031 125.705C321.203 124.533 323.102 124.533 324.274 125.705L340.352 141.784C341.524 142.955 341.524 144.855 340.352 146.026C339.181 147.198 337.281 147.198 336.11 146.026L320.031 129.947C318.859 128.776 318.859 126.876 320.031 125.705ZM37.966 148.203C39.1376 149.374 39.1376 151.274 37.966 152.445L30.435 159.976C29.1847 161.227 28.2462 162.662 27.6135 164.191C26.9801 165.722 25.2255 166.45 23.6945 165.816C22.1635 165.183 21.4359 163.428 22.0693 161.897C22.9983 159.652 24.3746 157.552 26.1924 155.734L33.7234 148.203C34.895 147.031 36.7944 147.031 37.966 148.203ZM352.189 157.862C353.36 156.691 355.26 156.691 356.431 157.862L364.471 165.902C366.288 167.72 367.665 169.82 368.594 172.066C369.227 173.596 368.5 175.351 366.969 175.985C365.438 176.618 363.683 175.89 363.05 174.359C362.417 172.83 361.478 171.395 360.228 170.145L352.189 162.105C351.017 160.934 351.017 159.034 352.189 157.862ZM23.6945 172.521C25.2255 171.888 26.9801 172.615 27.6135 174.146C28.2462 175.675 29.1847 177.111 30.435 178.361L38.4744 186.401C39.646 187.572 39.646 189.472 38.4744 190.643C37.3029 191.815 35.4034 191.815 34.2318 190.643L26.1924 182.604C24.3746 180.786 22.9983 178.685 22.0693 176.44C21.4359 174.909 22.1635 173.155 23.6945 172.521ZM366.969 182.689C368.5 183.323 369.227 185.077 368.594 186.608C367.665 188.853 366.288 190.954 364.471 192.772L356.94 200.303C355.768 201.475 353.869 201.475 352.697 200.303C351.525 199.131 351.525 197.232 352.697 196.06L360.228 188.529C361.478 187.279 362.417 185.844 363.05 184.314C363.683 182.783 365.438 182.056 366.969 182.689ZM50.3106 202.479C51.4822 201.308 53.3817 201.308 54.5533 202.479L70.6321 218.558C71.8036 219.73 71.8036 221.629 70.6321 222.801C69.4605 223.972 67.561 223.972 66.3894 222.801L50.3106 206.722C49.139 205.551 49.139 203.651 50.3106 202.479ZM341.878 211.122C343.049 212.294 343.049 214.193 341.878 215.365L326.816 230.427C325.644 231.599 323.745 231.599 322.573 230.427C321.401 229.255 321.401 227.356 322.573 226.184L337.635 211.122C338.807 209.951 340.706 209.951 341.878 211.122ZM82.4682 234.637C83.6398 233.465 85.5393 233.465 86.7109 234.637L102.79 250.716C103.961 251.887 103.961 253.787 102.79 254.959C101.618 256.13 99.7186 256.13 98.5471 254.959L82.4682 238.88C81.2967 237.708 81.2967 235.809 82.4682 234.637ZM311.754 241.246C312.925 242.418 312.925 244.317 311.754 245.489L296.692 260.551C295.52 261.723 293.621 261.723 292.449 260.551C291.277 259.379 291.277 257.48 292.449 256.308L307.511 241.246C308.683 240.075 310.582 240.075 311.754 241.246ZM114.626 266.795C115.797 265.623 117.697 265.623 118.869 266.795L134.947 282.874C136.119 284.045 136.119 285.945 134.947 287.116C133.776 288.288 131.876 288.288 130.705 287.116L114.626 271.037C113.454 269.866 113.454 267.966 114.626 266.795ZM281.63 271.37C282.801 272.542 282.801 274.441 281.63 275.613L266.568 290.675C265.396 291.847 263.497 291.847 262.325 290.675C261.153 289.503 261.153 287.604 262.325 286.432L277.387 271.37C278.559 270.199 280.458 270.199 281.63 271.37ZM146.784 298.952C147.955 297.781 149.855 297.781 151.026 298.952L167.105 315.031C168.277 316.203 168.277 318.102 167.105 319.274C165.933 320.445 164.034 320.445 162.862 319.274L146.784 303.195C145.612 302.023 145.612 300.124 146.784 298.952ZM251.506 301.494C252.677 302.666 252.677 304.565 251.506 305.737L236.444 320.799C235.272 321.971 233.373 321.971 232.201 320.799C231.029 319.627 231.029 317.728 232.201 316.556L247.263 301.494C248.435 300.323 250.334 300.323 251.506 301.494ZM178.941 331.11C180.113 329.938 182.012 329.938 183.184 331.11L191.223 339.149C192.474 340.4 193.909 341.338 195.438 341.971C196.969 342.604 197.697 344.359 197.063 345.89C196.43 347.421 194.675 348.149 193.144 347.515C190.899 346.586 188.798 345.21 186.981 343.392L178.941 335.353C177.77 334.181 177.77 332.282 178.941 331.11ZM221.382 331.618C222.553 332.79 222.553 334.689 221.382 335.861L213.851 343.392C212.033 345.21 209.932 346.586 207.687 347.515C206.156 348.149 204.401 347.421 203.768 345.89C203.135 344.359 203.862 342.604 205.393 341.971C206.922 341.338 208.358 340.4 209.608 339.149L217.139 331.618C218.311 330.447 220.21 330.447 221.382 331.618Z" fill="url(#paint4_linear_4_2)"/>
<defs>
<linearGradient id="paint0_linear_4_2" x1="19.1578" y1="292.939" x2="411.96" y2="206.006" gradientUnits="userSpaceOnUse">
<stop stop-color="#6E59EC"/>
<stop offset="1" stop-color="#E189F8"/>
</linearGradient>
<linearGradient id="paint1_linear_4_2" x1="32.9006" y1="254.498" x2="620.554" y2="127.458" gradientUnits="userSpaceOnUse">
<stop stop-color="#6E59EC"/>
<stop offset="1" stop-color="#E189F8"/>
</linearGradient>
<linearGradient id="paint2_linear_4_2" x1="-13.2359" y1="188.745" x2="389.863" y2="82.5867" gradientUnits="userSpaceOnUse">
<stop stop-color="#6E59EC"/>
<stop offset="1" stop-color="#E189F8"/>
</linearGradient>
<linearGradient id="paint3_linear_4_2" x1="84" y1="218.5" x2="240.5" y2="95" gradientUnits="userSpaceOnUse">
<stop stop-color="#6E59EC"/>
<stop offset="1" stop-color="#E189F8"/>
</linearGradient>
<linearGradient id="paint4_linear_4_2" x1="101.5" y1="276.5" x2="340" y2="48" gradientUnits="userSpaceOnUse">
<stop stop-color="#2623BC"/>
<stop offset="1" stop-color="#D38AFF"/>
</linearGradient>
</defs>
</svg>
