<svg width="193" height="227" viewBox="0 0 193 227" fill="none" xmlns="http://www.w3.org/2000/svg">
<path d="M19.5335 76.9181C19.5335 76.9181 0 48.497 35.2814 24.2485C70.5628 -6.25536e-05 90.0963 28.4211 90.0963 28.4211L170.027 144.719L157.422 201.962L99.4639 193.216L19.5335 76.9181Z" fill="url(#paint0_linear_1_20)"/>
<path fill-rule="evenodd" clip-rule="evenodd" d="M35.5315 62.106C37.1298 61.0188 39.3068 61.4332 40.394 63.0315L115.894 174.032C116.981 175.63 116.567 177.807 114.968 178.894C113.37 179.981 111.193 179.567 110.106 177.968L34.606 66.9684C33.5188 65.3701 33.9332 63.1931 35.5315 62.106Z" fill="#C27969" style="mix-blend-mode:luminosity"/>
<path fill-rule="evenodd" clip-rule="evenodd" d="M71.5319 37.6063C73.1302 36.5192 75.3072 36.9336 76.3943 38.5319L151.894 149.532C152.981 151.13 152.567 153.307 150.969 154.394C149.37 155.481 147.193 155.067 146.106 153.469L70.6063 42.4688C69.5192 40.8705 69.9336 38.6935 71.5319 37.6063Z" fill="#C27969" style="mix-blend-mode:luminosity"/>
<path d="M19.5335 76.9181C19.5335 76.9181 0 48.497 35.2814 24.2485C70.5628 -6.25536e-05 90.0963 28.4211 90.0963 28.4211L19.5335 76.9181Z" fill="url(#paint1_linear_1_20)"/>
<path d="M170.027 144.719L157.422 201.962L99.4638 193.216C99.4638 193.216 115.306 170.716 129.5 161C143.574 151.366 170.027 144.719 170.027 144.719Z" fill="url(#paint2_linear_1_20)"/>
<path d="M135.5 199L157.5 202L162 182L135.5 199Z" fill="url(#paint3_linear_1_20)"/>
<rect x="16.731" y="77.0645" width="89.5869" height="16.2853" rx="4" transform="rotate(-35.3607 16.731 77.0645)" fill="url(#paint4_linear_1_20)"/>
<defs>
<linearGradient id="paint0_linear_1_20" x1="168.5" y1="56.5" x2="50" y2="195" gradientUnits="userSpaceOnUse">
<stop stop-color="#E8CA2D"/>
<stop offset="1" stop-color="#FD8AFF"/>
</linearGradient>
<linearGradient id="paint1_linear_1_20" x1="24" y1="80" x2="75.5" y2="2.49996" gradientUnits="userSpaceOnUse">
<stop stop-color="#DF65C4"/>
<stop offset="1" stop-color="#F7A27E"/>
</linearGradient>
<linearGradient id="paint2_linear_1_20" x1="175" y1="156" x2="122.5" y2="232" gradientUnits="userSpaceOnUse">
<stop stop-color="#FEF8DB"/>
<stop offset="1" stop-color="#FBC1A0"/>
</linearGradient>
<linearGradient id="paint3_linear_1_20" x1="135" y1="221" x2="175.5" y2="192" gradientUnits="userSpaceOnUse">
<stop stop-color="#5B3030"/>
<stop offset="1" stop-color="#C16666"/>
</linearGradient>
<linearGradient id="paint4_linear_1_20" x1="93.7831" y1="77.467" x2="79.2579" y2="140.139" gradientUnits="userSpaceOnUse">
<stop stop-color="#D7EFFD"/>
<stop offset="1" stop-color="#B3C8FF"/>
</linearGradient>
</defs>
</svg>
